HIERARCHY
ROOT Hips
{
	OFFSET 0.00000 0.00000 0.00000
	CHANNELS 6 Xposition Yposition Zposition Zrotation Yrotation Xrotation 
	JOINT LHipJoint
	{
		OFFSET 0 0 0
		CHANNELS 3 Zrotation Yrotation Xrotation
		JOINT LeftHip
		{
			OFFSET 1.57338 -1.94743 0.52196
			CHANNELS 3 Zrotation Yrotation Xrotation
			JOINT LeftKnee
			{
				OFFSET 2.60333 -7.15259 0.00000
				CHANNELS 3 Zrotation Yrotation Xrotation
				JOINT LeftAnkle
				{
					OFFSET 2.77855 -7.63400 0.00000
					CHANNELS 3 Zrotation Yrotation Xrotation
					JOINT LeftToe
					{
						OFFSET 0.19847 -0.54529 2.28466
						CHANNELS 3 Zrotation Yrotation Xrotation
						End Site
						{
							OFFSET 0.00000 -0.00000 1.17993
						}
					}
				}
			}
		}
	}
	JOINT RHipJoint
	{
		OFFSET 0 0 0
		CHANNELS 3 Zrotation Yrotation Xrotation
		JOINT RightHip
		{
			OFFSET -1.61527 -1.94743 0.52196
			CHANNELS 3 Zrotation Yrotation Xrotation
			JOINT RightKnee
			{
				OFFSET -2.53829 -6.97390 0.00000
				CHANNELS 3 Zrotation Yrotation Xrotation
				JOINT RightAnkle
				{
					OFFSET -2.80762 -7.71387 0.00000
					CHANNELS 3 Zrotation Yrotation Xrotation
					JOINT RightToe
					{
						OFFSET -0.30536 -0.83898 2.28801
						CHANNELS 3 Zrotation Yrotation Xrotation
						End Site
						{
							OFFSET -0.00000 -0.00000 1.21323
						}
					}
				}
			}
		}
	}
	JOINT lowerback
	{
		OFFSET 0 0 0
		CHANNELS 3 Zrotation Yrotation Xrotation
		JOINT Chest
		{
			OFFSET -0.04381 1.99497 -0.19778
			CHANNELS 3 Zrotation Yrotation Xrotation
			JOINT Chest2
			{
				OFFSET -0.01959 2.01295 -0.04372
				CHANNELS 3 Zrotation Yrotation Xrotation
				JOINT lowerneck
				{
					OFFSET 0 0 0
					CHANNELS 3 Zrotation Yrotation Xrotation
					JOINT Neck
					{
						OFFSET -0.05459 1.76913 0.09708
						CHANNELS 3 Zrotation Yrotation Xrotation
						JOINT Head
						{
							OFFSET 0.09461 1.77368 -0.11172
							CHANNELS 3 Zrotation Yrotation Xrotation
							End Site
							{
								OFFSET 0.03812 1.78157 -0.04834
							}
						}
					}
				}
				JOINT LeftCollar
				{
					OFFSET 0 0 0
					CHANNELS 3 Zrotation Yrotation Xrotation
					JOINT LeftShoulder
					{
						OFFSET 3.50922 1.24034 -0.28866
CHANNELS 3 Zrotation Xrotation Yrotation
						JOINT LeftElbow
						{
OFFSET 0 -5.401880 0.000000
CHANNELS 3 Zrotation Xrotation Yrotation
							JOINT LeftWrist
							{
OFFSET 0 -3.685590 0.000000
CHANNELS 3 Zrotation Xrotation Yrotation
								JOINT lhand
								{
									OFFSET 0 0 0
CHANNELS 3 Zrotation Xrotation Yrotation
									JOINT LFingers
									{
OFFSET 0 -0.617530 0.000000
CHANNELS 3 Zrotation Xrotation Yrotation
										End Site
										{
OFFSET 0 -0.497870 0.000000
										}
									}
								}
								JOINT LThumb
								{
OFFSET 0 0.000000 0.000000
CHANNELS 3 Zrotation Xrotation Yrotation
									End Site
									{
OFFSET 0 -0.505470 0.505470
									}
								}
							}
						}
					}
				}
				JOINT RightCollar
				{
					OFFSET 0 0 0
					CHANNELS 3 Zrotation Yrotation Xrotation
					JOINT RightShoulder
					{
						OFFSET -2.95373 1.39649 -0.27346
CHANNELS 3 Zrotation Xrotation Yrotation
						JOINT RightElbow
						{
OFFSET 0 -6.106700 -0.000000
CHANNELS 3 Zrotation Xrotation Yrotation
							JOINT RightWrist
							{
OFFSET 0 -3.630520 0.000000
CHANNELS 3 Zrotation Xrotation Yrotation
								JOINT rhand
								{
									OFFSET 0 0 0
CHANNELS 3 Zrotation Xrotation Yrotation
									JOINT RFingers
									{
OFFSET 0 -0.583850 0.000000
CHANNELS 3 Zrotation Xrotation Yrotation
										End Site
										{
OFFSET 0 -0.470710 0.000000
										}
									}
								}
								JOINT RThumb
								{
OFFSET 0 0.000000 0.000000
CHANNELS 3 Zrotation Xrotation Yrotation
									End Site
									{
OFFSET 0 -0.477900 0.477900
									}
								}
							}
						}
					}
				}
			}
		}
	}
}
MOTION
Frames: 10
Frame Time: 0.008333333333333333
-8.136900 18.705400 0.844700 -1.333400 36.729900 0.055300 0.000000 0.000000 0.000000 -19.572700 -6.493700 -8.959400 2.122100 9.116000 26.158800 1.266500 13.792100 -30.206000 0.418100 4.150400 11.500300 0.000000 0.000000 0.000000 15.174500 4.624000 0.902800 -2.642200 -10.092000 29.275100 -0.191800 -17.052500 -25.833400 -0.562400 4.803400 -13.348700 -2.680800 0.805900 3.903800 -1.805000 0.941400 0.628800 -0.398400 0.484700 -1.555400 -6.208200 0.515200 -7.355500 7.375200 0.312600 22.031700 3.550700 0.411700 7.951000 -0.000000 0.000000 0.000000 5.718700 -4.296300 -25.214100 14.423000 -23.336100 2.993600 23.212200 13.759300 -21.185100 0.000000 0.000000 0.000000 -7.125000 0.000000 0.000000 -5.648400 52.758400 1.081100 -0.000000 0.000000 0.000000 -4.584500 7.005300 16.388300 -11.553800 -19.132100 -1.953600 -25.526100 20.144600 -2.276200 0.000000 0.000000 0.000000 7.125000 0.000000 -0.000000 0.816200 27.457300 0.348000
-7.796077 18.663150 0.736459 -2.002326 42.601787 -0.478356 0.000000 0.000000 0.000000 -19.914702 -6.474884 -9.995696 2.306652 9.477622 27.301109 1.156846 10.173631 -26.345877 0.229776 3.084954 8.515309 0.000000 0.000000 0.000000 14.907002 3.509923 -0.786883 -3.552923 -11.540255 34.124620 0.115695 -18.545304 -25.270630 -0.481923 4.450250 -12.347188 -1.560529 1.575122 5.127391 -1.760387 1.986422 0.841031 -1.068341 1.002016 -1.998366 -5.817688 1.489380 -6.996313 8.442194 1.393596 24.189880 4.007542 1.097223 8.513759 0.000000 0.000000 0.000000 5.674775 -4.059789 -27.709075 16.007324 -25.530513 3.649119 23.667322 12.135827 -20.944604 0.000000 0.000000 0.000000 -7.125000 0.000000 0.000000 -5.112302 52.589106 0.955954 0.000000 0.000000 0.000000 -4.210996 8.980307 15.414762 -13.099575 -21.432877 -2.489557 -26.960899 17.715653 -3.412664 0.000000 0.000000 0.000000 7.125000 0.000000 0.000000 -0.261892 26.152211 -0.119613
-7.408909 18.624777 0.684054 -1.132738 47.439919 -0.856877 0.000000 0.000000 0.000000 -21.816544 -6.169131 -8.636159 2.295664 9.456439 27.233871 1.098023 7.397856 -23.769997 0.140605 2.416764 6.658881 0.000000 0.000000 0.000000 13.416142 4.353424 -3.660068 -5.529955 -13.956091 43.063231 1.244636 -22.350935 -20.647707 -0.369766 3.905620 -10.811263 -1.671809 2.453695 6.084301 -2.064324 3.143886 1.546095 -1.422630 1.583603 -1.787162 -4.667308 2.338194 -6.123344 9.169207 2.276497 26.158447 4.200850 1.738234 8.959120 0.000000 0.000000 0.000000 6.006813 -3.377358 -28.219666 16.354797 -25.999311 3.800129 24.794451 12.229275 -22.367875 0.000000 0.000000 0.000000 -7.125000 0.000000 0.000000 -4.387309 54.311460 1.005329 0.000000 0.000000 0.000000 -4.563113 9.988158 17.657848 -14.619020 -23.612724 -3.071731 -27.439793 13.707003 -4.097578 0.000000 0.000000 0.000000 7.125000 0.000000 0.000000 -0.603807 25.365070 -0.286584
-7.096186 18.572038 0.662051 0.810948 51.747849 0.241536 0.000000 0.000000 0.000000 -23.980712 -6.180928 -7.734048 2.270066 9.407364 27.078115 1.074357 4.952397 -21.958289 0.083140 1.860174 5.119366 0.000000 0.000000 0.000000 11.972308 7.042552 -9.012357 -8.396689 -16.402492 53.977841 2.939086 -28.718107 -13.646102 -0.016362 -0.742476 2.040819 -3.228130 3.124984 6.667080 -2.286949 3.951671 2.287258 -0.857247 1.991283 -1.424215 -4.898089 3.179751 -5.959126 10.945579 3.147525 28.810007 5.084520 2.384745 9.744654 0.000000 0.000000 0.000000 6.341835 -3.496630 -24.511483 14.776044 -23.833128 3.134971 23.520545 13.232059 -21.432387 0.000000 0.000000 0.000000 -7.125000 0.000000 0.000000 -5.410751 53.076216 1.077278 0.000000 0.000000 0.000000 -4.821143 9.002029 18.378410 -15.850624 -25.317596 -3.581916 -27.678145 12.985904 -4.964575 0.000000 0.000000 0.000000 7.125000 0.000000 0.000000 -0.750307 24.377958 -0.372910
-6.807297 18.529907 0.702738 1.175772 56.278690 0.764945 0.000000 0.000000 0.000000 -24.577129 -7.097200 -7.373117 2.373496 9.604128 27.703978 1.142059 2.100766 -21.046297 0.096012 1.997728 5.499322 0.000000 0.000000 0.000000 12.217173 9.030383 -14.684223 -10.681226 -17.775361 61.741756 1.709115 -22.377265 -9.193131 -0.151598 -2.507173 6.909656 -3.593166 3.253300 7.260399 -2.524401 4.089506 2.614901 -0.935353 2.064451 -1.422349 -3.768325 3.838223 -4.111521 11.663936 3.836777 29.412806 5.172971 2.925723 9.552418 0.000000 0.000000 0.000000 7.202730 -3.247274 -19.822672 12.632131 -20.745718 2.321425 21.877121 15.455413 -20.148253 0.000000 0.000000 0.000000 -7.125000 0.000000 0.000000 -6.672851 51.432550 1.061156 0.000000 0.000000 0.000000 -4.641812 7.970232 18.685658 -17.450182 -27.447312 -4.292817 -28.091104 11.790434 -4.733113 0.000000 0.000000 0.000000 7.125000 0.000000 0.000000 -1.068246 24.618295 -0.525969
-6.541652 18.427958 0.772580 4.059626 59.834538 3.772819 0.000000 0.000000 0.000000 -26.312005 -7.952512 -7.766760 2.646568 10.099677 29.300075 1.218367 -0.053637 -20.861228 0.031263 1.131640 3.111222 0.000000 0.000000 0.000000 11.336389 13.498358 -18.453352 -10.708723 -17.789503 61.831867 0.255050 -12.335011 -13.611802 -0.002378 -0.296752 0.815295 -4.961453 3.320448 8.193392 -3.230175 4.053018 3.021199 -0.947041 2.055798 -1.553308 -3.293928 4.098900 -3.949483 12.295087 4.061171 29.649723 5.345148 3.171836 9.581829 0.000000 0.000000 0.000000 8.407076 -2.803268 -15.086331 11.097548 -18.437585 1.806759 24.981299 19.329863 -23.324072 0.000000 0.000000 0.000000 -7.125000 0.000000 0.000000 -4.500782 55.367822 1.131316 0.000000 0.000000 0.000000 -4.721106 6.872181 20.039441 -19.029369 -29.454941 -5.045388 -30.368572 9.250080 -4.106488 0.000000 0.000000 0.000000 7.125000 0.000000 0.000000 -2.805443 25.222587 -1.343967
-6.279637 18.373167 0.903504 2.642860 62.466391 3.014435 0.000000 0.000000 0.000000 -25.399515 -8.790668 -7.959257 2.941289 10.599352 30.940199 1.316267 -2.091430 -21.104613 0.044440 1.360290 3.740737 0.000000 0.000000 0.000000 13.112162 21.021226 -20.353143 -9.049696 -16.838914 56.260931 -0.044472 -12.659424 -18.552912 -0.003954 0.369464 -1.015297 -4.162472 3.615238 9.480800 -3.512556 4.476637 3.674733 -1.784236 2.280915 -1.508741 -2.641534 4.042968 -3.497659 12.273120 3.974882 28.275552 5.108681 3.162817 9.033744 0.000000 0.000000 0.000000 9.839056 -2.601718 -12.436450 10.117702 -16.923427 1.509017 24.710841 18.677892 -22.511031 0.000000 0.000000 0.000000 -7.125000 0.000000 0.000000 -4.518210 54.447751 1.046419 0.000000 0.000000 0.000000 -4.589830 6.178190 21.779306 -20.827914 -31.626516 -5.959608 -28.658675 8.082719 -4.803895 0.000000 0.000000 0.000000 7.125000 0.000000 0.000000 -1.488905 24.509224 -0.737108
-6.010946 18.349738 1.049612 4.255200 65.420292 5.175644 0.000000 0.000000 0.000000 -25.854008 -9.069345 -7.586341 2.898475 10.528838 30.706741 1.332279 -4.159546 -20.849340 0.094537 1.981410 5.454296 0.000000 0.000000 0.000000 11.892346 28.565724 -21.475628 -6.594437 -14.978707 47.319723 -0.275257 -12.183650 -20.557403 -0.001551 -0.096415 0.265010 -4.698293 3.197091 11.041308 -3.687160 3.853928 4.607326 -1.662459 1.981830 -1.405840 -2.857514 3.715107 -3.801063 10.542593 3.931163 27.696195 4.511802 2.918951 8.938259 0.000000 0.000000 0.000000 10.019203 -2.275481 -9.535176 9.966323 -16.686876 1.465246 25.475519 20.241353 -22.287370 0.000000 0.000000 0.000000 -7.125000 0.000000 0.000000 -3.648696 54.361909 0.840182 0.000000 0.000000 0.000000 -5.716822 5.822547 25.297392 -23.375319 -34.496023 -7.350027 -30.562228 7.287420 -5.781828 0.000000 0.000000 0.000000 7.125000 0.000000 0.000000 -2.842809 23.274733 -1.490096
-5.658822 18.397780 1.193662 3.980808 68.911618 6.098644 0.000000 0.000000 0.000000 -25.177331 -9.050206 -6.866045 2.624976 10.061664 29.176786 1.197376 -6.421891 -19.554021 0.050992 1.447705 3.981705 0.000000 0.000000 0.000000 9.933424 33.692007 -22.348054 -3.889776 -12.008941 35.768121 -0.330388 -7.107302 -15.728594 -0.067140 1.671266 -4.598079 -3.323742 2.287164 12.179069 -3.497361 2.798336 5.357256 -2.132548 1.481221 -1.182998 -3.719092 3.078207 -3.796201 8.818902 3.565856 28.295498 4.066212 2.491389 9.207052 0.000000 0.000000 0.000000 9.388183 -1.892707 -8.010230 10.486211 -17.496373 1.618078 25.228010 20.320203 -21.981154 0.000000 0.000000 0.000000 -7.125000 0.000000 0.000000 -3.815261 53.986272 0.843459 0.000000 0.000000 0.000000 -7.118358 6.271311 28.202896 -26.585011 -37.779979 -9.243983 -32.679861 3.471430 -8.308769 0.000000 0.000000 0.000000 7.125000 0.000000 0.000000 -4.164844 20.149163 -2.481978
-5.178498 18.476685 1.368174 4.397096 74.100416 7.926242 0.000000 0.000000 0.000000 -24.417947 -9.803640 -5.024743 2.136370 9.144290 26.247998 0.895817 -9.476202 -17.164047 0.052247 1.473865 4.053663 0.000000 0.000000 0.000000 8.388825 33.736529 -23.164468 -2.248934 -9.365812 26.946900 -0.072101 -11.339983 -17.134555 -0.064827 1.641830 -4.516802 -1.058210 0.877398 12.122373 -2.816275 1.214943 5.674696 -2.483817 0.719829 -0.817110 -3.665392 3.175816 -3.997035 8.580554 3.850351 30.196950 4.106176 2.649398 9.926257 0.000000 0.000000 0.000000 8.035803 -0.599628 -9.919301 11.527398 -19.092057 1.944939 25.251126 18.976391 -21.899979 0.000000 0.000000 0.000000 -7.125000 0.000000 0.000000 -3.767616 53.904321 0.825824 0.000000 0.000000 0.000000 -8.011535 6.863514 27.647654 -27.694263 -38.833265 -9.931427 -34.745740 2.368878 -9.129742 0.000000 0.000000 0.000000 7.125000 0.000000 0.000000 -5.536700 18.942414 -3.454801
